<?xml version="1.0" encoding="UTF-8" standalone="no"?>
<svg
   width="625"
   height="169.18945"
   viewBox="0 0 128 34.63525"
   version="1.1"
   id="svg4"
   xmlns="http://www.w3.org/2000/svg"
   xmlns:svg="http://www.w3.org/2000/svg">
  <defs
     id="defs4" />
  <g
     fill="none"
     fill-rule="evenodd"
     id="g4"
     transform="matrix(0.25,0,0,0.25,0,-0.029499)">
    <g
       fill="#b52e31"
       id="g1">
      <path
         d="m 150.6,102.8 v -63 h 8.1 l 38.5,50.7 V 39.8 h 7.7 v 63 h -8.1 L 158.3,51.6 v 51.2 z m 117,-2.5 c -5.1,1.9 -10.6,2.9 -16.4,2.9 -22.8,0 -34.2,-10.9 -34.2,-32.8 0,-20.7 11,-31.1 33,-31.1 6.3,0 12.2,0.9 17.6,2.6 v 7 c -5.4,-2.1 -11,-3.1 -16.7,-3.1 -17.2,0 -25.8,8.2 -25.8,24.4 0,17.5 8.5,26.2 25.4,26.2 2.7,0 5.7,-0.4 9,-1.1 V 74.2 h 8.1 z m 13,-21.8 V 39.8 h 8.1 v 38.7 c 0,12.1 6,18.2 18.1,18.2 12,0 18.1,-6.1 18.1,-18.2 V 39.8 h 8.1 v 38.7 c 0,16.5 -8.7,24.8 -26.2,24.8 -17.5,0 -26.2,-8.3 -26.2,-24.8 z m 75,-38.7 v 56.4 h 33 v 6.6 h -41.1 v -63 z m 44.7,63 h -8.5 l 31.3,-71.3 31.3,71.3 h -9 L 437.3,83 h -20.8 l 2.2,-6.6 h 15.9 L 422.8,47.9 Z m 62.8,0 v -63 H 490 c 12,0 18,5 18,15.1 0,8.2 -5.9,14.3 -17.6,18.2 l 21.6,29.7 h -10.7 l -20,-28.3 v -5.3 c 12,-1.9 18.1,-6.5 18.1,-13.9 0,-5.8 -3.3,-8.7 -10,-8.7 h -18 v 56.2 z"
         id="path1" />
    </g>
    <path
       d="M 0,23 64.5,0 130.7,22.6 120,107.9 64.5,138.6 9.9,108.3 Z"
       fill="#e23237"
       id="path2" />
    <path
       d="M 130.7,22.6 64.5,0 V 138.6 L 120,107.9 Z"
       fill="#b52e31"
       id="path3" />
    <path
       d="m 64.6,16.2 -40.2,89.4 15,-0.3 8.1,-20.2 h 35.9 l 8.8,20.4 14.3,0.3 z m 0.1,28.7 13.6,28.4 H 52.8 Z"
       fill="#ffffff"
       id="path4" />
  </g>
</svg>
