<?xml version="1.0" encoding="UTF-8" standalone="no"?>
<svg
   width="614.84033"
   height="382.01801"
   viewBox="0 0 614.84033 382.01801"
   fill="none"
   version="1.1"
   id="svg6"
   sodipodi:docname="nrwl.svg"
   xmlns:inkscape="http://www.inkscape.org/namespaces/inkscape"
   xmlns:sodipodi="http://sodipodi.sourceforge.net/DTD/sodipodi-0.dtd"
   xmlns="http://www.w3.org/2000/svg"
   xmlns:svg="http://www.w3.org/2000/svg">
  <defs
     id="defs6" />
  <sodipodi:namedview
     id="namedview6"
     pagecolor="#ffffff"
     bordercolor="#000000"
     borderopacity="0.25"
     inkscape:showpageshadow="2"
     inkscape:pageopacity="0.0"
     inkscape:pagecheckerboard="0"
     inkscape:deskcolor="#d1d1d1">
    <inkscape:page
       x="0"
       y="0"
       width="614.84033"
       height="382.01801"
       id="page2"
       margin="0"
       bleed="0" />
  </sodipodi:namedview>
  <path
     d="M 307.081,245.773 229.089,123.862 228.972,226.293 94.559,0 H 0 v 382.018 h 93.502 l 0.305,-226.01 133.026,215.882 z"
     fill="#002f56"
     id="path1" />
  <path
     d="m 229.112,98.201 h 93.383 l 0.212,-1.081 V 0 h -93.501 l -0.118,97.12 z"
     fill="#002f56"
     id="path2" />
  <path
     d="m 466.825,204.11 c -22.371,-0.424 -42.583,13.292 -50.452,34.237 13.1,-19.59 38.044,-27.462 60.016,-18.94 10.151,4.136 23.499,10.81 34.073,7.238 -10.057,-14.114 -26.307,-22.506 -43.637,-22.535 z"
     fill="#143055"
     id="path3" />
  <path
     d="m 572.78,250.073 c 0,-11.443 -6.227,-14.099 -19.151,-18.798 -9.588,-3.337 -20.468,-7.097 -28.387,-17.437 -1.551,-2.044 -2.984,-4.347 -4.512,-6.791 -3.421,-6.329 -8.061,-11.92 -13.652,-16.449 -7.543,-5.545 -17.436,-8.248 -30.267,-8.248 -25.744,0.018 -48.938,15.558 -58.746,39.361 12.4,-17.207 33.008,-26.529 54.118,-24.483 21.109,2.047 39.543,15.155 48.406,34.423 4.429,7.307 13.163,10.797 21.408,8.553 12.619,-2.702 11.749,9.235 30.807,13.277 z"
     fill="#143055"
     id="path4" />
  <path
     d="m 614.396,247.629 v -0.258 c -0.282,-75.76 -61.778,-140.57 -137.585,-140.57 -46.299,-0.032 -89.502,23.253 -114.932,61.943 l -0.493,-0.846 -38.914,-61.097 h -93.36 l 88.707,138.925 -86.569,136.292 h 90.681 l 39.455,-60.603 40.159,60.603 H 492.25 L 410.005,252.587 c -1.366,-2.521 -2.107,-5.334 -2.162,-8.201 -0.007,-18.281 7.253,-35.815 20.179,-48.742 12.927,-12.926 30.461,-20.186 48.742,-20.179 38.115,0 44.483,22.793 52.708,33.509 16.237,21.149 48.666,11.89 48.666,39.478 v 0 c 0.096,6.464 3.634,12.386 9.281,15.534 5.646,3.149 12.544,3.046 18.094,-0.27 5.55,-3.316 8.909,-9.341 8.813,-15.805 v 0 -0.282 z"
     fill="#002f56"
     id="path5" />
  <path
     d="m 614.491,267.133 c 0.922,6.443 0.01,13.016 -2.631,18.964 -5.17,11.961 -13.794,7.966 -13.794,7.966 0,0 -7.426,-3.619 -2.914,-10.551 5.005,-7.731 14.898,-6.838 19.339,-16.379 z"
     fill="#002f56"
     id="path6" />
</svg>
